<svg viewBox="0 0 181 161" fill="#000" xmlns="http://www.w3.org/2000/svg">
    <path fill-rule="evenodd" clip-rule="evenodd"
          d="M84.4852 2.84666C87.6494 0.145552 92.3037 0.131636 95.4839 2.81378L177.835 72.2667C181.002 74.9372 181.404 79.6689 178.733 82.8353C176.063 86.0016 171.331 86.4037 168.165 83.7332L90.0294 17.836L12.8695 83.7042C9.71913 86.3936 4.98512 86.0198 2.29579 82.8695C-0.393546 79.7191 -0.0198083 74.9851 3.13055 72.2958L84.4852 2.84666Z"/>
    <path fill-rule="evenodd" clip-rule="evenodd"
          d="M35.5 58.5V134.5C35.5 140.851 40.6487 146 47 146H133C139.351 146 144.5 140.851 144.5 134.5V58.5H159.5V134.5C159.5 149.136 147.636 161 133 161H47C32.3644 161 20.5 149.136 20.5 134.5V58.5H35.5Z"/>
    <path fill-rule="evenodd" clip-rule="evenodd"
          d="M105.5 100V154.5H120.5V97.5C120.5 90.5964 114.904 85 108 85H72C65.0964 85 59.5 90.5964 59.5 97.5V154.5H74.5V100H105.5Z"/>
</svg>
